<mxfile host="app.diagrams.net" agent="Mozilla/5.0 (Windows NT 10.0; Win64; x64) AppleWebKit/537.36 (KHTML, like Gecko) Chrome/129.0.0.0 Safari/537.36" version="24.7.16">
  <diagram name="Page-1" id="njTRxFpOl6HkTcsxgdSz">
    <mxGraphModel dx="2600" dy="1646" grid="1" gridSize="10" guides="1" tooltips="1" connect="1" arrows="1" fold="1" page="1" pageScale="1" pageWidth="1100" pageHeight="850" math="0" shadow="0">
      <root>
        <mxCell id="0" />
        <mxCell id="1" parent="0" />
        <mxCell id="v-zH-XTOCrItHWOVsEd--1" value="" style="rounded=0;whiteSpace=wrap;html=1;" parent="1" vertex="1">
          <mxGeometry x="-410" y="-90" width="1110" height="980" as="geometry" />
        </mxCell>
        <mxCell id="v-zH-XTOCrItHWOVsEd--2" value="" style="shape=actor;whiteSpace=wrap;html=1;" parent="1" vertex="1">
          <mxGeometry x="210" y="-210" width="40" height="60" as="geometry" />
        </mxCell>
        <mxCell id="v-zH-XTOCrItHWOVsEd--3" style="edgeStyle=orthogonalEdgeStyle;rounded=0;orthogonalLoop=1;jettySize=auto;html=1;exitX=1;exitY=0.25;exitDx=0;exitDy=0;entryX=0;entryY=0.5;entryDx=0;entryDy=0;" parent="1" source="v-zH-XTOCrItHWOVsEd--4" target="v-zH-XTOCrItHWOVsEd--121" edge="1">
          <mxGeometry relative="1" as="geometry">
            <Array as="points">
              <mxPoint x="340" y="154" />
              <mxPoint x="340" y="-27" />
            </Array>
          </mxGeometry>
        </mxCell>
        <mxCell id="v-zH-XTOCrItHWOVsEd--4" value="Backend&lt;div&gt;System&lt;/div&gt;" style="shape=hexagon;perimeter=hexagonPerimeter2;whiteSpace=wrap;html=1;fixedSize=1;size=25;" parent="1" vertex="1">
          <mxGeometry x="182.5" y="130" width="95" height="80" as="geometry" />
        </mxCell>
        <mxCell id="v-zH-XTOCrItHWOVsEd--5" style="edgeStyle=orthogonalEdgeStyle;rounded=0;orthogonalLoop=1;jettySize=auto;html=1;exitX=0.5;exitY=0;exitDx=0;exitDy=0;entryX=0;entryY=0.5;entryDx=0;entryDy=0;" parent="1" source="v-zH-XTOCrItHWOVsEd--15" target="v-zH-XTOCrItHWOVsEd--98" edge="1">
          <mxGeometry relative="1" as="geometry" />
        </mxCell>
        <mxCell id="v-zH-XTOCrItHWOVsEd--6" value="Post /crreate-brand" style="edgeLabel;html=1;align=center;verticalAlign=middle;resizable=0;points=[];" parent="v-zH-XTOCrItHWOVsEd--5" vertex="1" connectable="0">
          <mxGeometry x="0.2074" y="-2" relative="1" as="geometry">
            <mxPoint as="offset" />
          </mxGeometry>
        </mxCell>
        <mxCell id="v-zH-XTOCrItHWOVsEd--7" style="edgeStyle=orthogonalEdgeStyle;rounded=0;orthogonalLoop=1;jettySize=auto;html=1;exitX=0.75;exitY=0;exitDx=0;exitDy=0;entryX=0;entryY=0.5;entryDx=0;entryDy=0;" parent="1" source="v-zH-XTOCrItHWOVsEd--15" target="v-zH-XTOCrItHWOVsEd--94" edge="1">
          <mxGeometry relative="1" as="geometry" />
        </mxCell>
        <mxCell id="v-zH-XTOCrItHWOVsEd--8" value="Put /update-brand/:id" style="edgeLabel;html=1;align=center;verticalAlign=middle;resizable=0;points=[];" parent="v-zH-XTOCrItHWOVsEd--7" vertex="1" connectable="0">
          <mxGeometry x="0.0889" y="4" relative="1" as="geometry">
            <mxPoint as="offset" />
          </mxGeometry>
        </mxCell>
        <mxCell id="v-zH-XTOCrItHWOVsEd--9" style="edgeStyle=orthogonalEdgeStyle;rounded=0;orthogonalLoop=1;jettySize=auto;html=1;exitX=0.5;exitY=1;exitDx=0;exitDy=0;entryX=0;entryY=0.5;entryDx=0;entryDy=0;" parent="1" source="v-zH-XTOCrItHWOVsEd--15" target="v-zH-XTOCrItHWOVsEd--97" edge="1">
          <mxGeometry relative="1" as="geometry" />
        </mxCell>
        <mxCell id="v-zH-XTOCrItHWOVsEd--10" value="Delete /delete-brand/:id" style="edgeLabel;html=1;align=center;verticalAlign=middle;resizable=0;points=[];" parent="v-zH-XTOCrItHWOVsEd--9" vertex="1" connectable="0">
          <mxGeometry x="0.1538" y="1" relative="1" as="geometry">
            <mxPoint as="offset" />
          </mxGeometry>
        </mxCell>
        <mxCell id="v-zH-XTOCrItHWOVsEd--11" style="edgeStyle=orthogonalEdgeStyle;rounded=0;orthogonalLoop=1;jettySize=auto;html=1;exitX=0.75;exitY=1;exitDx=0;exitDy=0;entryX=0;entryY=0.5;entryDx=0;entryDy=0;" parent="1" source="v-zH-XTOCrItHWOVsEd--15" target="v-zH-XTOCrItHWOVsEd--96" edge="1">
          <mxGeometry relative="1" as="geometry" />
        </mxCell>
        <mxCell id="v-zH-XTOCrItHWOVsEd--12" value="Get /single-brand/:slug" style="edgeLabel;html=1;align=center;verticalAlign=middle;resizable=0;points=[];" parent="v-zH-XTOCrItHWOVsEd--11" vertex="1" connectable="0">
          <mxGeometry x="-0.1111" y="-1" relative="1" as="geometry">
            <mxPoint as="offset" />
          </mxGeometry>
        </mxCell>
        <mxCell id="v-zH-XTOCrItHWOVsEd--13" style="edgeStyle=orthogonalEdgeStyle;rounded=0;orthogonalLoop=1;jettySize=auto;html=1;exitX=1;exitY=0.5;exitDx=0;exitDy=0;entryX=0;entryY=0.5;entryDx=0;entryDy=0;" parent="1" source="v-zH-XTOCrItHWOVsEd--15" target="v-zH-XTOCrItHWOVsEd--95" edge="1">
          <mxGeometry relative="1" as="geometry" />
        </mxCell>
        <mxCell id="v-zH-XTOCrItHWOVsEd--14" value="Get /all-brands" style="edgeLabel;html=1;align=center;verticalAlign=middle;resizable=0;points=[];" parent="v-zH-XTOCrItHWOVsEd--13" vertex="1" connectable="0">
          <mxGeometry x="-0.2462" relative="1" as="geometry">
            <mxPoint as="offset" />
          </mxGeometry>
        </mxCell>
        <mxCell id="v-zH-XTOCrItHWOVsEd--15" value="Category" style="rounded=1;whiteSpace=wrap;html=1;" parent="1" vertex="1">
          <mxGeometry x="330" y="535" width="120" height="60" as="geometry" />
        </mxCell>
        <mxCell id="v-zH-XTOCrItHWOVsEd--16" style="edgeStyle=orthogonalEdgeStyle;rounded=0;orthogonalLoop=1;jettySize=auto;html=1;exitX=0.5;exitY=0;exitDx=0;exitDy=0;entryX=0;entryY=0.5;entryDx=0;entryDy=0;" parent="1" source="v-zH-XTOCrItHWOVsEd--28" target="v-zH-XTOCrItHWOVsEd--92" edge="1">
          <mxGeometry relative="1" as="geometry" />
        </mxCell>
        <mxCell id="v-zH-XTOCrItHWOVsEd--17" value="&lt;font style=&quot;font-size: 14px;&quot;&gt;&amp;nbsp;Post /register&lt;/font&gt;" style="edgeLabel;html=1;align=center;verticalAlign=middle;resizable=0;points=[];" parent="v-zH-XTOCrItHWOVsEd--16" vertex="1" connectable="0">
          <mxGeometry x="0.2554" relative="1" as="geometry">
            <mxPoint as="offset" />
          </mxGeometry>
        </mxCell>
        <mxCell id="v-zH-XTOCrItHWOVsEd--18" style="edgeStyle=orthogonalEdgeStyle;rounded=0;orthogonalLoop=1;jettySize=auto;html=1;exitX=0.75;exitY=0;exitDx=0;exitDy=0;entryX=0;entryY=0.5;entryDx=0;entryDy=0;" parent="1" source="v-zH-XTOCrItHWOVsEd--28" target="v-zH-XTOCrItHWOVsEd--88" edge="1">
          <mxGeometry relative="1" as="geometry" />
        </mxCell>
        <mxCell id="v-zH-XTOCrItHWOVsEd--19" value="&lt;span style=&quot;font-size: 14px;&quot;&gt;Post /login&lt;/span&gt;" style="edgeLabel;html=1;align=center;verticalAlign=middle;resizable=0;points=[];" parent="v-zH-XTOCrItHWOVsEd--18" vertex="1" connectable="0">
          <mxGeometry x="0.0894" relative="1" as="geometry">
            <mxPoint as="offset" />
          </mxGeometry>
        </mxCell>
        <mxCell id="v-zH-XTOCrItHWOVsEd--20" style="edgeStyle=orthogonalEdgeStyle;rounded=0;orthogonalLoop=1;jettySize=auto;html=1;exitX=1;exitY=0.25;exitDx=0;exitDy=0;entryX=0;entryY=0.5;entryDx=0;entryDy=0;" parent="1" source="v-zH-XTOCrItHWOVsEd--28" target="v-zH-XTOCrItHWOVsEd--89" edge="1">
          <mxGeometry relative="1" as="geometry" />
        </mxCell>
        <mxCell id="v-zH-XTOCrItHWOVsEd--21" value="&lt;font style=&quot;font-size: 14px;&quot;&gt;Post&lt;/font&gt;&lt;div&gt;&lt;font style=&quot;font-size: 14px;&quot;&gt;/forgotpassword&lt;/font&gt;&lt;/div&gt;" style="edgeLabel;html=1;align=center;verticalAlign=middle;resizable=0;points=[];" parent="v-zH-XTOCrItHWOVsEd--20" vertex="1" connectable="0">
          <mxGeometry x="-0.4824" y="2" relative="1" as="geometry">
            <mxPoint x="16" y="-33" as="offset" />
          </mxGeometry>
        </mxCell>
        <mxCell id="v-zH-XTOCrItHWOVsEd--22" style="edgeStyle=orthogonalEdgeStyle;rounded=0;orthogonalLoop=1;jettySize=auto;html=1;exitX=1;exitY=0.75;exitDx=0;exitDy=0;" parent="1" source="v-zH-XTOCrItHWOVsEd--28" target="v-zH-XTOCrItHWOVsEd--90" edge="1">
          <mxGeometry relative="1" as="geometry" />
        </mxCell>
        <mxCell id="v-zH-XTOCrItHWOVsEd--23" value="&lt;font style=&quot;font-size: 14px;&quot;&gt;Get&amp;nbsp;&lt;/font&gt;&lt;div&gt;&lt;font style=&quot;font-size: 14px;&quot;&gt;/userauth&lt;/font&gt;&lt;/div&gt;" style="edgeLabel;html=1;align=center;verticalAlign=middle;resizable=0;points=[];" parent="v-zH-XTOCrItHWOVsEd--22" vertex="1" connectable="0">
          <mxGeometry x="-0.3867" y="-1" relative="1" as="geometry">
            <mxPoint as="offset" />
          </mxGeometry>
        </mxCell>
        <mxCell id="v-zH-XTOCrItHWOVsEd--24" style="edgeStyle=orthogonalEdgeStyle;rounded=0;orthogonalLoop=1;jettySize=auto;html=1;exitX=0.75;exitY=1;exitDx=0;exitDy=0;entryX=0;entryY=0.75;entryDx=0;entryDy=0;" parent="1" source="v-zH-XTOCrItHWOVsEd--28" target="v-zH-XTOCrItHWOVsEd--91" edge="1">
          <mxGeometry relative="1" as="geometry" />
        </mxCell>
        <mxCell id="v-zH-XTOCrItHWOVsEd--25" value="&lt;font style=&quot;font-size: 14px;&quot;&gt;Get /adminauth&lt;/font&gt;" style="edgeLabel;html=1;align=center;verticalAlign=middle;resizable=0;points=[];" parent="v-zH-XTOCrItHWOVsEd--24" vertex="1" connectable="0">
          <mxGeometry x="-0.1507" y="-1" relative="1" as="geometry">
            <mxPoint x="1" y="1" as="offset" />
          </mxGeometry>
        </mxCell>
        <mxCell id="v-zH-XTOCrItHWOVsEd--26" style="edgeStyle=orthogonalEdgeStyle;rounded=0;orthogonalLoop=1;jettySize=auto;html=1;exitX=0.5;exitY=1;exitDx=0;exitDy=0;entryX=0;entryY=0.5;entryDx=0;entryDy=0;" parent="1" source="v-zH-XTOCrItHWOVsEd--28" target="v-zH-XTOCrItHWOVsEd--93" edge="1">
          <mxGeometry relative="1" as="geometry" />
        </mxCell>
        <mxCell id="v-zH-XTOCrItHWOVsEd--27" value="&lt;font style=&quot;font-size: 14px;&quot;&gt;Get /profile&lt;/font&gt;" style="edgeLabel;html=1;align=center;verticalAlign=middle;resizable=0;points=[];" parent="v-zH-XTOCrItHWOVsEd--26" vertex="1" connectable="0">
          <mxGeometry x="0.0275" relative="1" as="geometry">
            <mxPoint as="offset" />
          </mxGeometry>
        </mxCell>
        <mxCell id="v-zH-XTOCrItHWOVsEd--28" value="Authentication" style="rounded=1;whiteSpace=wrap;html=1;arcSize=15;" parent="1" vertex="1">
          <mxGeometry x="330" y="260" width="120" height="60" as="geometry" />
        </mxCell>
        <mxCell id="v-zH-XTOCrItHWOVsEd--29" style="edgeStyle=orthogonalEdgeStyle;rounded=0;orthogonalLoop=1;jettySize=auto;html=1;exitX=0;exitY=0.5;exitDx=0;exitDy=0;entryX=0.5;entryY=0;entryDx=0;entryDy=0;" parent="1" source="v-zH-XTOCrItHWOVsEd--39" target="v-zH-XTOCrItHWOVsEd--103" edge="1">
          <mxGeometry relative="1" as="geometry" />
        </mxCell>
        <mxCell id="v-zH-XTOCrItHWOVsEd--30" value="Post /create-category" style="edgeLabel;html=1;align=center;verticalAlign=middle;resizable=0;points=[];" parent="v-zH-XTOCrItHWOVsEd--29" vertex="1" connectable="0">
          <mxGeometry x="0.7215" y="-1" relative="1" as="geometry">
            <mxPoint as="offset" />
          </mxGeometry>
        </mxCell>
        <mxCell id="v-zH-XTOCrItHWOVsEd--31" style="edgeStyle=orthogonalEdgeStyle;rounded=0;orthogonalLoop=1;jettySize=auto;html=1;exitX=0;exitY=0.75;exitDx=0;exitDy=0;entryX=0.5;entryY=0;entryDx=0;entryDy=0;" parent="1" source="v-zH-XTOCrItHWOVsEd--39" target="v-zH-XTOCrItHWOVsEd--99" edge="1">
          <mxGeometry relative="1" as="geometry" />
        </mxCell>
        <mxCell id="v-zH-XTOCrItHWOVsEd--32" value="Put /update-category/:id" style="edgeLabel;html=1;align=center;verticalAlign=middle;resizable=0;points=[];" parent="v-zH-XTOCrItHWOVsEd--31" vertex="1" connectable="0">
          <mxGeometry x="0.5221" y="3" relative="1" as="geometry">
            <mxPoint as="offset" />
          </mxGeometry>
        </mxCell>
        <mxCell id="v-zH-XTOCrItHWOVsEd--33" style="edgeStyle=orthogonalEdgeStyle;rounded=0;orthogonalLoop=1;jettySize=auto;html=1;exitX=0.5;exitY=1;exitDx=0;exitDy=0;" parent="1" source="v-zH-XTOCrItHWOVsEd--39" target="v-zH-XTOCrItHWOVsEd--100" edge="1">
          <mxGeometry relative="1" as="geometry" />
        </mxCell>
        <mxCell id="v-zH-XTOCrItHWOVsEd--34" value="Get /all-categories" style="edgeLabel;html=1;align=center;verticalAlign=middle;resizable=0;points=[];" parent="v-zH-XTOCrItHWOVsEd--33" vertex="1" connectable="0">
          <mxGeometry x="0.125" y="1" relative="1" as="geometry">
            <mxPoint as="offset" />
          </mxGeometry>
        </mxCell>
        <mxCell id="v-zH-XTOCrItHWOVsEd--35" style="edgeStyle=orthogonalEdgeStyle;rounded=0;orthogonalLoop=1;jettySize=auto;html=1;exitX=1;exitY=0.5;exitDx=0;exitDy=0;entryX=0.5;entryY=0;entryDx=0;entryDy=0;" parent="1" source="v-zH-XTOCrItHWOVsEd--39" target="v-zH-XTOCrItHWOVsEd--102" edge="1">
          <mxGeometry relative="1" as="geometry" />
        </mxCell>
        <mxCell id="v-zH-XTOCrItHWOVsEd--36" value="Delete /delete-category/:id" style="edgeLabel;html=1;align=center;verticalAlign=middle;resizable=0;points=[];" parent="v-zH-XTOCrItHWOVsEd--35" vertex="1" connectable="0">
          <mxGeometry x="0.8147" y="-1" relative="1" as="geometry">
            <mxPoint as="offset" />
          </mxGeometry>
        </mxCell>
        <mxCell id="v-zH-XTOCrItHWOVsEd--37" style="edgeStyle=orthogonalEdgeStyle;rounded=0;orthogonalLoop=1;jettySize=auto;html=1;exitX=1;exitY=0.75;exitDx=0;exitDy=0;" parent="1" source="v-zH-XTOCrItHWOVsEd--39" target="v-zH-XTOCrItHWOVsEd--101" edge="1">
          <mxGeometry relative="1" as="geometry" />
        </mxCell>
        <mxCell id="v-zH-XTOCrItHWOVsEd--38" value="Get /single-category/:slug" style="edgeLabel;html=1;align=center;verticalAlign=middle;resizable=0;points=[];" parent="v-zH-XTOCrItHWOVsEd--37" vertex="1" connectable="0">
          <mxGeometry x="0.7126" y="1" relative="1" as="geometry">
            <mxPoint y="1" as="offset" />
          </mxGeometry>
        </mxCell>
        <mxCell id="v-zH-XTOCrItHWOVsEd--39" value="Brand" style="rounded=1;whiteSpace=wrap;html=1;" parent="1" vertex="1">
          <mxGeometry x="167.5" y="690" width="120" height="60" as="geometry" />
        </mxCell>
        <mxCell id="v-zH-XTOCrItHWOVsEd--40" style="edgeStyle=orthogonalEdgeStyle;rounded=0;orthogonalLoop=1;jettySize=auto;html=1;exitX=0;exitY=0.75;exitDx=0;exitDy=0;entryX=1;entryY=0.25;entryDx=0;entryDy=0;" parent="1" source="v-zH-XTOCrItHWOVsEd--68" edge="1">
          <mxGeometry relative="1" as="geometry">
            <mxPoint x="-22.5" y="292.5" as="sourcePoint" />
            <mxPoint x="-202.5" y="430" as="targetPoint" />
            <Array as="points">
              <mxPoint x="-132.5" y="275" />
              <mxPoint x="-132.5" y="410" />
              <mxPoint x="-202.5" y="410" />
            </Array>
          </mxGeometry>
        </mxCell>
        <mxCell id="v-zH-XTOCrItHWOVsEd--41" value="/create-product" style="edgeLabel;html=1;align=center;verticalAlign=middle;resizable=0;points=[];" parent="v-zH-XTOCrItHWOVsEd--40" vertex="1" connectable="0">
          <mxGeometry x="0.7493" y="1" relative="1" as="geometry">
            <mxPoint as="offset" />
          </mxGeometry>
        </mxCell>
        <mxCell id="v-zH-XTOCrItHWOVsEd--42" style="edgeStyle=orthogonalEdgeStyle;rounded=0;orthogonalLoop=1;jettySize=auto;html=1;exitX=0;exitY=1;exitDx=0;exitDy=0;entryX=0.75;entryY=0;entryDx=0;entryDy=0;" parent="1" source="v-zH-XTOCrItHWOVsEd--68" target="v-zH-XTOCrItHWOVsEd--114" edge="1">
          <mxGeometry relative="1" as="geometry">
            <Array as="points">
              <mxPoint x="-117.5" y="290" />
            </Array>
          </mxGeometry>
        </mxCell>
        <mxCell id="v-zH-XTOCrItHWOVsEd--43" value="Get /get-product-list/:page" style="edgeLabel;html=1;align=center;verticalAlign=middle;resizable=0;points=[];" parent="v-zH-XTOCrItHWOVsEd--42" vertex="1" connectable="0">
          <mxGeometry x="0.7509" y="1" relative="1" as="geometry">
            <mxPoint y="9" as="offset" />
          </mxGeometry>
        </mxCell>
        <mxCell id="v-zH-XTOCrItHWOVsEd--44" style="edgeStyle=orthogonalEdgeStyle;rounded=0;orthogonalLoop=1;jettySize=auto;html=1;exitX=0.25;exitY=1;exitDx=0;exitDy=0;entryX=0.5;entryY=0;entryDx=0;entryDy=0;" parent="1" source="v-zH-XTOCrItHWOVsEd--68" target="v-zH-XTOCrItHWOVsEd--115" edge="1">
          <mxGeometry relative="1" as="geometry" />
        </mxCell>
        <mxCell id="v-zH-XTOCrItHWOVsEd--45" value="Get /search/:keyword" style="edgeLabel;html=1;align=center;verticalAlign=middle;resizable=0;points=[];" parent="v-zH-XTOCrItHWOVsEd--44" vertex="1" connectable="0">
          <mxGeometry x="0.6526" y="1" relative="1" as="geometry">
            <mxPoint x="-1" y="-7" as="offset" />
          </mxGeometry>
        </mxCell>
        <mxCell id="v-zH-XTOCrItHWOVsEd--46" style="edgeStyle=orthogonalEdgeStyle;rounded=0;orthogonalLoop=1;jettySize=auto;html=1;exitX=0.75;exitY=1;exitDx=0;exitDy=0;entryX=0.5;entryY=0;entryDx=0;entryDy=0;" parent="1" source="v-zH-XTOCrItHWOVsEd--68" target="v-zH-XTOCrItHWOVsEd--116" edge="1">
          <mxGeometry relative="1" as="geometry" />
        </mxCell>
        <mxCell id="v-zH-XTOCrItHWOVsEd--47" value="Get /get-product-recommendation/:cid/:pid" style="edgeLabel;html=1;align=center;verticalAlign=middle;resizable=0;points=[];" parent="v-zH-XTOCrItHWOVsEd--46" vertex="1" connectable="0">
          <mxGeometry x="0.687" y="4" relative="1" as="geometry">
            <mxPoint x="-4" y="-34" as="offset" />
          </mxGeometry>
        </mxCell>
        <mxCell id="v-zH-XTOCrItHWOVsEd--48" style="edgeStyle=orthogonalEdgeStyle;rounded=0;orthogonalLoop=1;jettySize=auto;html=1;exitX=0.75;exitY=0;exitDx=0;exitDy=0;entryX=0.5;entryY=1;entryDx=0;entryDy=0;" parent="1" source="v-zH-XTOCrItHWOVsEd--68" target="v-zH-XTOCrItHWOVsEd--118" edge="1">
          <mxGeometry relative="1" as="geometry" />
        </mxCell>
        <mxCell id="v-zH-XTOCrItHWOVsEd--49" value="Post /braintree/payment" style="edgeLabel;html=1;align=center;verticalAlign=middle;resizable=0;points=[];" parent="v-zH-XTOCrItHWOVsEd--48" vertex="1" connectable="0">
          <mxGeometry x="0.6786" y="1" relative="1" as="geometry">
            <mxPoint as="offset" />
          </mxGeometry>
        </mxCell>
        <mxCell id="v-zH-XTOCrItHWOVsEd--50" style="edgeStyle=orthogonalEdgeStyle;rounded=0;orthogonalLoop=1;jettySize=auto;html=1;exitX=0.5;exitY=0;exitDx=0;exitDy=0;entryX=0.5;entryY=1;entryDx=0;entryDy=0;" parent="1" source="v-zH-XTOCrItHWOVsEd--68" target="v-zH-XTOCrItHWOVsEd--119" edge="1">
          <mxGeometry relative="1" as="geometry" />
        </mxCell>
        <mxCell id="v-zH-XTOCrItHWOVsEd--51" value="Get /braintree/token" style="edgeLabel;html=1;align=center;verticalAlign=middle;resizable=0;points=[];" parent="v-zH-XTOCrItHWOVsEd--50" vertex="1" connectable="0">
          <mxGeometry x="0.7077" y="4" relative="1" as="geometry">
            <mxPoint as="offset" />
          </mxGeometry>
        </mxCell>
        <mxCell id="v-zH-XTOCrItHWOVsEd--52" style="edgeStyle=orthogonalEdgeStyle;rounded=0;orthogonalLoop=1;jettySize=auto;html=1;exitX=0;exitY=0;exitDx=0;exitDy=0;entryX=0.5;entryY=1;entryDx=0;entryDy=0;" parent="1" source="v-zH-XTOCrItHWOVsEd--68" target="v-zH-XTOCrItHWOVsEd--120" edge="1">
          <mxGeometry relative="1" as="geometry">
            <Array as="points">
              <mxPoint x="-22.5" y="120" />
              <mxPoint x="-122.5" y="120" />
            </Array>
          </mxGeometry>
        </mxCell>
        <mxCell id="v-zH-XTOCrItHWOVsEd--53" value="Get /getProductsFromCategory/:slug" style="edgeLabel;html=1;align=center;verticalAlign=middle;resizable=0;points=[];" parent="v-zH-XTOCrItHWOVsEd--52" vertex="1" connectable="0">
          <mxGeometry x="0.0625" relative="1" as="geometry">
            <mxPoint x="-49" y="-125" as="offset" />
          </mxGeometry>
        </mxCell>
        <mxCell id="v-zH-XTOCrItHWOVsEd--54" style="edgeStyle=orthogonalEdgeStyle;rounded=0;orthogonalLoop=1;jettySize=auto;html=1;exitX=0;exitY=0.25;exitDx=0;exitDy=0;entryX=1;entryY=0.5;entryDx=0;entryDy=0;" parent="1" source="v-zH-XTOCrItHWOVsEd--68" target="v-zH-XTOCrItHWOVsEd--107" edge="1">
          <mxGeometry relative="1" as="geometry">
            <Array as="points">
              <mxPoint x="-142.5" y="245" />
              <mxPoint x="-142.5" y="35" />
            </Array>
          </mxGeometry>
        </mxCell>
        <mxCell id="v-zH-XTOCrItHWOVsEd--55" value="Get /all-products" style="edgeLabel;html=1;align=center;verticalAlign=middle;resizable=0;points=[];" parent="v-zH-XTOCrItHWOVsEd--54" vertex="1" connectable="0">
          <mxGeometry x="0.85" y="2" relative="1" as="geometry">
            <mxPoint x="25" y="-2" as="offset" />
          </mxGeometry>
        </mxCell>
        <mxCell id="v-zH-XTOCrItHWOVsEd--56" style="edgeStyle=orthogonalEdgeStyle;rounded=0;orthogonalLoop=1;jettySize=auto;html=1;exitX=0;exitY=0.25;exitDx=0;exitDy=0;entryX=1;entryY=0.5;entryDx=0;entryDy=0;" parent="1" source="v-zH-XTOCrItHWOVsEd--68" target="v-zH-XTOCrItHWOVsEd--108" edge="1">
          <mxGeometry relative="1" as="geometry">
            <Array as="points">
              <mxPoint x="-142.5" y="245" />
              <mxPoint x="-142.5" y="95" />
            </Array>
          </mxGeometry>
        </mxCell>
        <mxCell id="v-zH-XTOCrItHWOVsEd--57" value="Get /get-product/:pid" style="edgeLabel;html=1;align=center;verticalAlign=middle;resizable=0;points=[];" parent="v-zH-XTOCrItHWOVsEd--56" vertex="1" connectable="0">
          <mxGeometry x="0.8176" y="1" relative="1" as="geometry">
            <mxPoint x="33" y="-1" as="offset" />
          </mxGeometry>
        </mxCell>
        <mxCell id="v-zH-XTOCrItHWOVsEd--58" style="edgeStyle=orthogonalEdgeStyle;rounded=0;orthogonalLoop=1;jettySize=auto;html=1;exitX=0;exitY=0.25;exitDx=0;exitDy=0;entryX=1;entryY=0.5;entryDx=0;entryDy=0;" parent="1" source="v-zH-XTOCrItHWOVsEd--68" target="v-zH-XTOCrItHWOVsEd--109" edge="1">
          <mxGeometry relative="1" as="geometry">
            <Array as="points">
              <mxPoint x="-142.5" y="245" />
              <mxPoint x="-142.5" y="145" />
            </Array>
          </mxGeometry>
        </mxCell>
        <mxCell id="v-zH-XTOCrItHWOVsEd--59" value="Get /get-photo/:pid" style="edgeLabel;html=1;align=center;verticalAlign=middle;resizable=0;points=[];" parent="v-zH-XTOCrItHWOVsEd--58" vertex="1" connectable="0">
          <mxGeometry x="0.7931" y="-2" relative="1" as="geometry">
            <mxPoint x="33" y="2" as="offset" />
          </mxGeometry>
        </mxCell>
        <mxCell id="v-zH-XTOCrItHWOVsEd--60" style="edgeStyle=orthogonalEdgeStyle;rounded=0;orthogonalLoop=1;jettySize=auto;html=1;exitX=0;exitY=0.25;exitDx=0;exitDy=0;entryX=1;entryY=0.5;entryDx=0;entryDy=0;" parent="1" source="v-zH-XTOCrItHWOVsEd--68" target="v-zH-XTOCrItHWOVsEd--110" edge="1">
          <mxGeometry relative="1" as="geometry">
            <Array as="points">
              <mxPoint x="-142.5" y="245" />
              <mxPoint x="-142.5" y="195" />
            </Array>
          </mxGeometry>
        </mxCell>
        <mxCell id="v-zH-XTOCrItHWOVsEd--61" value="Delete /delete-product/:pid" style="edgeLabel;html=1;align=center;verticalAlign=middle;resizable=0;points=[];" parent="v-zH-XTOCrItHWOVsEd--60" vertex="1" connectable="0">
          <mxGeometry x="0.7" y="3" relative="1" as="geometry">
            <mxPoint x="24" y="-3" as="offset" />
          </mxGeometry>
        </mxCell>
        <mxCell id="v-zH-XTOCrItHWOVsEd--62" style="edgeStyle=orthogonalEdgeStyle;rounded=0;orthogonalLoop=1;jettySize=auto;html=1;exitX=0;exitY=0.25;exitDx=0;exitDy=0;entryX=1;entryY=0.5;entryDx=0;entryDy=0;" parent="1" source="v-zH-XTOCrItHWOVsEd--68" target="v-zH-XTOCrItHWOVsEd--112" edge="1">
          <mxGeometry relative="1" as="geometry">
            <Array as="points">
              <mxPoint x="-82.5" y="245" />
              <mxPoint x="-82.5" y="245" />
            </Array>
          </mxGeometry>
        </mxCell>
        <mxCell id="v-zH-XTOCrItHWOVsEd--63" value="Put /update-product/:pid" style="edgeLabel;html=1;align=center;verticalAlign=middle;resizable=0;points=[];" parent="v-zH-XTOCrItHWOVsEd--62" vertex="1" connectable="0">
          <mxGeometry x="0.7474" y="-2" relative="1" as="geometry">
            <mxPoint x="37" y="2" as="offset" />
          </mxGeometry>
        </mxCell>
        <mxCell id="v-zH-XTOCrItHWOVsEd--64" style="edgeStyle=orthogonalEdgeStyle;rounded=0;orthogonalLoop=1;jettySize=auto;html=1;exitX=0;exitY=0.5;exitDx=0;exitDy=0;" parent="1" source="v-zH-XTOCrItHWOVsEd--68" target="v-zH-XTOCrItHWOVsEd--117" edge="1">
          <mxGeometry relative="1" as="geometry">
            <Array as="points">
              <mxPoint x="-172.5" y="260" />
              <mxPoint x="-172.5" y="295" />
            </Array>
          </mxGeometry>
        </mxCell>
        <mxCell id="v-zH-XTOCrItHWOVsEd--65" value="Post /products-filter/:page" style="edgeLabel;html=1;align=center;verticalAlign=middle;resizable=0;points=[];" parent="v-zH-XTOCrItHWOVsEd--64" vertex="1" connectable="0">
          <mxGeometry x="0.6711" y="-1" relative="1" as="geometry">
            <mxPoint x="31" y="1" as="offset" />
          </mxGeometry>
        </mxCell>
        <mxCell id="v-zH-XTOCrItHWOVsEd--66" style="edgeStyle=orthogonalEdgeStyle;rounded=0;orthogonalLoop=1;jettySize=auto;html=1;exitX=0;exitY=0.75;exitDx=0;exitDy=0;entryX=1;entryY=0.5;entryDx=0;entryDy=0;" parent="1" source="v-zH-XTOCrItHWOVsEd--68" target="v-zH-XTOCrItHWOVsEd--113" edge="1">
          <mxGeometry relative="1" as="geometry">
            <Array as="points">
              <mxPoint x="-132.5" y="275" />
              <mxPoint x="-132.5" y="355" />
            </Array>
          </mxGeometry>
        </mxCell>
        <mxCell id="v-zH-XTOCrItHWOVsEd--67" value="Get /total-product-count" style="edgeLabel;html=1;align=center;verticalAlign=middle;resizable=0;points=[];" parent="v-zH-XTOCrItHWOVsEd--66" vertex="1" connectable="0">
          <mxGeometry x="0.6741" y="-1" relative="1" as="geometry">
            <mxPoint x="25" y="1" as="offset" />
          </mxGeometry>
        </mxCell>
        <mxCell id="v-zH-XTOCrItHWOVsEd--68" value="Product" style="rounded=1;whiteSpace=wrap;html=1;" parent="1" vertex="1">
          <mxGeometry x="-22.5" y="230" width="120" height="60" as="geometry" />
        </mxCell>
        <mxCell id="v-zH-XTOCrItHWOVsEd--69" style="edgeStyle=orthogonalEdgeStyle;rounded=0;orthogonalLoop=1;jettySize=auto;html=1;exitX=0.5;exitY=0;exitDx=0;exitDy=0;entryX=1;entryY=0.5;entryDx=0;entryDy=0;" parent="1" source="v-zH-XTOCrItHWOVsEd--75" target="v-zH-XTOCrItHWOVsEd--106" edge="1">
          <mxGeometry relative="1" as="geometry" />
        </mxCell>
        <mxCell id="v-zH-XTOCrItHWOVsEd--70" value="Get /user/order" style="edgeLabel;html=1;align=center;verticalAlign=middle;resizable=0;points=[];" parent="v-zH-XTOCrItHWOVsEd--69" vertex="1" connectable="0">
          <mxGeometry x="0.29" y="1" relative="1" as="geometry">
            <mxPoint as="offset" />
          </mxGeometry>
        </mxCell>
        <mxCell id="v-zH-XTOCrItHWOVsEd--71" style="edgeStyle=orthogonalEdgeStyle;rounded=0;orthogonalLoop=1;jettySize=auto;html=1;exitX=0;exitY=0.5;exitDx=0;exitDy=0;entryX=1;entryY=0.5;entryDx=0;entryDy=0;" parent="1" source="v-zH-XTOCrItHWOVsEd--75" target="v-zH-XTOCrItHWOVsEd--104" edge="1">
          <mxGeometry relative="1" as="geometry" />
        </mxCell>
        <mxCell id="v-zH-XTOCrItHWOVsEd--72" value="Get /admin/get-all-orders" style="edgeLabel;html=1;align=center;verticalAlign=middle;resizable=0;points=[];" parent="v-zH-XTOCrItHWOVsEd--71" vertex="1" connectable="0">
          <mxGeometry x="0.1167" y="-1" relative="1" as="geometry">
            <mxPoint x="25" y="1" as="offset" />
          </mxGeometry>
        </mxCell>
        <mxCell id="v-zH-XTOCrItHWOVsEd--73" style="edgeStyle=orthogonalEdgeStyle;rounded=0;orthogonalLoop=1;jettySize=auto;html=1;exitX=0.5;exitY=1;exitDx=0;exitDy=0;entryX=1;entryY=0.5;entryDx=0;entryDy=0;" parent="1" source="v-zH-XTOCrItHWOVsEd--75" target="v-zH-XTOCrItHWOVsEd--105" edge="1">
          <mxGeometry relative="1" as="geometry" />
        </mxCell>
        <mxCell id="v-zH-XTOCrItHWOVsEd--74" value="Get /admin/changeOrderStatus" style="edgeLabel;html=1;align=center;verticalAlign=middle;resizable=0;points=[];" parent="v-zH-XTOCrItHWOVsEd--73" vertex="1" connectable="0">
          <mxGeometry x="0.43" y="3" relative="1" as="geometry">
            <mxPoint x="29" y="-3" as="offset" />
          </mxGeometry>
        </mxCell>
        <mxCell id="v-zH-XTOCrItHWOVsEd--75" value="Order" style="rounded=1;whiteSpace=wrap;html=1;" parent="1" vertex="1">
          <mxGeometry x="10" y="605" width="120" height="60" as="geometry" />
        </mxCell>
        <mxCell id="v-zH-XTOCrItHWOVsEd--76" value="" style="endArrow=classic;html=1;rounded=0;entryX=0;entryY=0.5;entryDx=0;entryDy=0;exitX=0.5;exitY=1;exitDx=0;exitDy=0;" parent="1" source="v-zH-XTOCrItHWOVsEd--4" target="v-zH-XTOCrItHWOVsEd--28" edge="1">
          <mxGeometry relative="1" as="geometry">
            <mxPoint x="179.9999999999999" y="250" as="sourcePoint" />
            <mxPoint x="272.4" y="410" as="targetPoint" />
            <Array as="points">
              <mxPoint x="228" y="290" />
            </Array>
          </mxGeometry>
        </mxCell>
        <mxCell id="v-zH-XTOCrItHWOVsEd--77" value="&lt;font style=&quot;font-size: 14px;&quot;&gt;/auth&lt;/font&gt;" style="edgeLabel;resizable=0;html=1;;align=center;verticalAlign=middle;" parent="v-zH-XTOCrItHWOVsEd--76" connectable="0" vertex="1">
          <mxGeometry relative="1" as="geometry">
            <mxPoint x="36" y="-5" as="offset" />
          </mxGeometry>
        </mxCell>
        <mxCell id="v-zH-XTOCrItHWOVsEd--78" value="" style="endArrow=classic;html=1;rounded=0;entryX=0;entryY=0.5;entryDx=0;entryDy=0;exitX=0.5;exitY=1;exitDx=0;exitDy=0;" parent="1" source="v-zH-XTOCrItHWOVsEd--4" target="v-zH-XTOCrItHWOVsEd--15" edge="1">
          <mxGeometry relative="1" as="geometry">
            <mxPoint x="238" y="220" as="sourcePoint" />
            <mxPoint x="330" y="300" as="targetPoint" />
            <Array as="points">
              <mxPoint x="230" y="570" />
            </Array>
          </mxGeometry>
        </mxCell>
        <mxCell id="v-zH-XTOCrItHWOVsEd--79" value="&lt;font style=&quot;font-size: 14px;&quot;&gt;/category&lt;/font&gt;" style="edgeLabel;resizable=0;html=1;;align=center;verticalAlign=middle;" parent="v-zH-XTOCrItHWOVsEd--78" connectable="0" vertex="1">
          <mxGeometry relative="1" as="geometry">
            <mxPoint x="46" y="130" as="offset" />
          </mxGeometry>
        </mxCell>
        <mxCell id="v-zH-XTOCrItHWOVsEd--80" value="" style="endArrow=classic;html=1;rounded=0;entryX=0.5;entryY=0;entryDx=0;entryDy=0;exitX=0.5;exitY=1;exitDx=0;exitDy=0;" parent="1" source="v-zH-XTOCrItHWOVsEd--4" target="v-zH-XTOCrItHWOVsEd--39" edge="1">
          <mxGeometry relative="1" as="geometry">
            <mxPoint x="230" y="210" as="sourcePoint" />
            <mxPoint x="330" y="380" as="targetPoint" />
            <Array as="points">
              <mxPoint x="230" y="450" />
              <mxPoint x="228" y="680" />
            </Array>
          </mxGeometry>
        </mxCell>
        <mxCell id="v-zH-XTOCrItHWOVsEd--81" value="&lt;font style=&quot;font-size: 14px;&quot;&gt;/brand&lt;/font&gt;" style="edgeLabel;resizable=0;html=1;;align=center;verticalAlign=middle;" parent="v-zH-XTOCrItHWOVsEd--80" connectable="0" vertex="1">
          <mxGeometry relative="1" as="geometry">
            <mxPoint x="-2" y="215" as="offset" />
          </mxGeometry>
        </mxCell>
        <mxCell id="v-zH-XTOCrItHWOVsEd--82" value="" style="endArrow=classic;html=1;rounded=0;entryX=1;entryY=0.5;entryDx=0;entryDy=0;exitX=0.5;exitY=1;exitDx=0;exitDy=0;" parent="1" source="v-zH-XTOCrItHWOVsEd--4" target="v-zH-XTOCrItHWOVsEd--68" edge="1">
          <mxGeometry relative="1" as="geometry">
            <mxPoint x="248" y="230" as="sourcePoint" />
            <mxPoint x="340" y="390" as="targetPoint" />
            <Array as="points">
              <mxPoint x="230" y="260" />
            </Array>
          </mxGeometry>
        </mxCell>
        <mxCell id="v-zH-XTOCrItHWOVsEd--83" value="&lt;font style=&quot;font-size: 14px;&quot;&gt;/product&lt;/font&gt;" style="edgeLabel;resizable=0;html=1;;align=center;verticalAlign=middle;" parent="v-zH-XTOCrItHWOVsEd--82" connectable="0" vertex="1">
          <mxGeometry relative="1" as="geometry">
            <mxPoint x="-30" as="offset" />
          </mxGeometry>
        </mxCell>
        <mxCell id="v-zH-XTOCrItHWOVsEd--84" value="" style="endArrow=classic;html=1;rounded=0;entryX=1;entryY=0.5;entryDx=0;entryDy=0;exitX=0.5;exitY=1;exitDx=0;exitDy=0;" parent="1" source="v-zH-XTOCrItHWOVsEd--4" target="v-zH-XTOCrItHWOVsEd--75" edge="1">
          <mxGeometry relative="1" as="geometry">
            <mxPoint x="258" y="240" as="sourcePoint" />
            <mxPoint x="350" y="400" as="targetPoint" />
            <Array as="points">
              <mxPoint x="228" y="630" />
            </Array>
          </mxGeometry>
        </mxCell>
        <mxCell id="v-zH-XTOCrItHWOVsEd--85" value="&lt;font style=&quot;font-size: 14px;&quot;&gt;/order&lt;/font&gt;" style="edgeLabel;resizable=0;html=1;;align=center;verticalAlign=middle;" parent="v-zH-XTOCrItHWOVsEd--84" connectable="0" vertex="1">
          <mxGeometry relative="1" as="geometry">
            <mxPoint x="-46" y="162" as="offset" />
          </mxGeometry>
        </mxCell>
        <mxCell id="v-zH-XTOCrItHWOVsEd--86" value="" style="endArrow=classic;html=1;rounded=0;entryX=0.5;entryY=0;entryDx=0;entryDy=0;exitX=0.5;exitY=1;exitDx=0;exitDy=0;" parent="1" source="v-zH-XTOCrItHWOVsEd--2" target="v-zH-XTOCrItHWOVsEd--4" edge="1">
          <mxGeometry relative="1" as="geometry">
            <mxPoint x="370" y="390" as="sourcePoint" />
            <mxPoint x="470" y="390" as="targetPoint" />
            <Array as="points" />
          </mxGeometry>
        </mxCell>
        <mxCell id="v-zH-XTOCrItHWOVsEd--87" value="&lt;font style=&quot;font-size: 14px;&quot;&gt;http Connection&lt;/font&gt;" style="edgeLabel;resizable=0;html=1;;align=center;verticalAlign=middle;" parent="v-zH-XTOCrItHWOVsEd--86" connectable="0" vertex="1">
          <mxGeometry relative="1" as="geometry">
            <mxPoint y="-110" as="offset" />
          </mxGeometry>
        </mxCell>
        <mxCell id="v-zH-XTOCrItHWOVsEd--88" value="Login" style="rounded=1;whiteSpace=wrap;html=1;" parent="1" vertex="1">
          <mxGeometry x="570" y="170" width="100" height="30" as="geometry" />
        </mxCell>
        <mxCell id="v-zH-XTOCrItHWOVsEd--89" value="Forgot Password" style="rounded=1;whiteSpace=wrap;html=1;" parent="1" vertex="1">
          <mxGeometry x="570" y="220" width="100" height="30" as="geometry" />
        </mxCell>
        <mxCell id="v-zH-XTOCrItHWOVsEd--90" value="User Authentication" style="rounded=1;whiteSpace=wrap;html=1;" parent="1" vertex="1">
          <mxGeometry x="570" y="270" width="100" height="30" as="geometry" />
        </mxCell>
        <mxCell id="v-zH-XTOCrItHWOVsEd--91" value="Admin Authentication" style="rounded=1;whiteSpace=wrap;html=1;" parent="1" vertex="1">
          <mxGeometry x="570" y="320" width="100" height="30" as="geometry" />
        </mxCell>
        <mxCell id="v-zH-XTOCrItHWOVsEd--92" value="Register" style="rounded=1;whiteSpace=wrap;html=1;" parent="1" vertex="1">
          <mxGeometry x="570" y="110" width="100" height="30" as="geometry" />
        </mxCell>
        <mxCell id="v-zH-XTOCrItHWOVsEd--93" value="/Profile" style="rounded=1;whiteSpace=wrap;html=1;" parent="1" vertex="1">
          <mxGeometry x="570" y="370" width="100" height="30" as="geometry" />
        </mxCell>
        <mxCell id="v-zH-XTOCrItHWOVsEd--94" value="Update Brand" style="rounded=1;whiteSpace=wrap;html=1;" parent="1" vertex="1">
          <mxGeometry x="570" y="500" width="100" height="30" as="geometry" />
        </mxCell>
        <mxCell id="v-zH-XTOCrItHWOVsEd--95" value="All Brands" style="rounded=1;whiteSpace=wrap;html=1;" parent="1" vertex="1">
          <mxGeometry x="570" y="550" width="100" height="30" as="geometry" />
        </mxCell>
        <mxCell id="v-zH-XTOCrItHWOVsEd--96" value="Single Brand" style="rounded=1;whiteSpace=wrap;html=1;" parent="1" vertex="1">
          <mxGeometry x="570" y="600" width="100" height="30" as="geometry" />
        </mxCell>
        <mxCell id="v-zH-XTOCrItHWOVsEd--97" value="Delete Brand" style="rounded=1;whiteSpace=wrap;html=1;" parent="1" vertex="1">
          <mxGeometry x="570" y="650" width="100" height="30" as="geometry" />
        </mxCell>
        <mxCell id="v-zH-XTOCrItHWOVsEd--98" value="Create Brand" style="rounded=1;whiteSpace=wrap;html=1;" parent="1" vertex="1">
          <mxGeometry x="570" y="440" width="100" height="30" as="geometry" />
        </mxCell>
        <mxCell id="v-zH-XTOCrItHWOVsEd--99" value="Update Category" style="rounded=1;whiteSpace=wrap;html=1;" parent="1" vertex="1">
          <mxGeometry x="20" y="830" width="100" height="30" as="geometry" />
        </mxCell>
        <mxCell id="v-zH-XTOCrItHWOVsEd--100" value="All Categories" style="rounded=1;whiteSpace=wrap;html=1;" parent="1" vertex="1">
          <mxGeometry x="177.5" y="830" width="100" height="30" as="geometry" />
        </mxCell>
        <mxCell id="v-zH-XTOCrItHWOVsEd--101" value="Single Category" style="rounded=1;whiteSpace=wrap;html=1;" parent="1" vertex="1">
          <mxGeometry x="400" y="830" width="100" height="30" as="geometry" />
        </mxCell>
        <mxCell id="v-zH-XTOCrItHWOVsEd--102" value="Delete Category" style="rounded=1;whiteSpace=wrap;html=1;" parent="1" vertex="1">
          <mxGeometry x="570" y="830" width="100" height="30" as="geometry" />
        </mxCell>
        <mxCell id="v-zH-XTOCrItHWOVsEd--103" value="Create Category" style="rounded=1;whiteSpace=wrap;html=1;" parent="1" vertex="1">
          <mxGeometry x="-110" y="830" width="100" height="30" as="geometry" />
        </mxCell>
        <mxCell id="v-zH-XTOCrItHWOVsEd--104" value="Get All Orders" style="rounded=1;whiteSpace=wrap;html=1;" parent="1" vertex="1">
          <mxGeometry x="-260" y="620" width="100" height="30" as="geometry" />
        </mxCell>
        <mxCell id="v-zH-XTOCrItHWOVsEd--105" value="Change Order Status" style="rounded=1;whiteSpace=wrap;html=1;" parent="1" vertex="1">
          <mxGeometry x="-260" y="670" width="100" height="30" as="geometry" />
        </mxCell>
        <mxCell id="v-zH-XTOCrItHWOVsEd--106" value="Get Orders" style="rounded=1;whiteSpace=wrap;html=1;" parent="1" vertex="1">
          <mxGeometry x="-260" y="570" width="100" height="30" as="geometry" />
        </mxCell>
        <mxCell id="v-zH-XTOCrItHWOVsEd--107" value="All Products" style="rounded=1;whiteSpace=wrap;html=1;" parent="1" vertex="1">
          <mxGeometry x="-382.5" y="20" width="100" height="30" as="geometry" />
        </mxCell>
        <mxCell id="v-zH-XTOCrItHWOVsEd--108" value="Get&amp;nbsp; Product" style="rounded=1;whiteSpace=wrap;html=1;" parent="1" vertex="1">
          <mxGeometry x="-382.5" y="80" width="100" height="30" as="geometry" />
        </mxCell>
        <mxCell id="v-zH-XTOCrItHWOVsEd--109" value="Get Photo" style="rounded=1;whiteSpace=wrap;html=1;" parent="1" vertex="1">
          <mxGeometry x="-382.5" y="130" width="100" height="30" as="geometry" />
        </mxCell>
        <mxCell id="v-zH-XTOCrItHWOVsEd--110" value="Delete Product" style="rounded=1;whiteSpace=wrap;html=1;" parent="1" vertex="1">
          <mxGeometry x="-382.5" y="180" width="100" height="30" as="geometry" />
        </mxCell>
        <mxCell id="v-zH-XTOCrItHWOVsEd--111" value="Create&lt;div&gt;Product&lt;/div&gt;" style="rounded=1;whiteSpace=wrap;html=1;" parent="1" vertex="1">
          <mxGeometry x="-302.5" y="430" width="100" height="30" as="geometry" />
        </mxCell>
        <mxCell id="v-zH-XTOCrItHWOVsEd--112" value="Update Product" style="rounded=1;whiteSpace=wrap;html=1;" parent="1" vertex="1">
          <mxGeometry x="-382.5" y="230" width="100" height="30" as="geometry" />
        </mxCell>
        <mxCell id="v-zH-XTOCrItHWOVsEd--113" value="Total Product Count" style="rounded=1;whiteSpace=wrap;html=1;" parent="1" vertex="1">
          <mxGeometry x="-382.5" y="340" width="100" height="30" as="geometry" />
        </mxCell>
        <mxCell id="v-zH-XTOCrItHWOVsEd--114" value="Get Product List&amp;nbsp;&lt;div&gt;(Page)&lt;/div&gt;" style="rounded=1;whiteSpace=wrap;html=1;" parent="1" vertex="1">
          <mxGeometry x="-192.5" y="470" width="100" height="30" as="geometry" />
        </mxCell>
        <mxCell id="v-zH-XTOCrItHWOVsEd--115" value="Search by Keyword" style="rounded=1;whiteSpace=wrap;html=1;" parent="1" vertex="1">
          <mxGeometry x="-62.5" y="460" width="100" height="30" as="geometry" />
        </mxCell>
        <mxCell id="v-zH-XTOCrItHWOVsEd--116" value="Get Product Recommendation" style="rounded=1;whiteSpace=wrap;html=1;" parent="1" vertex="1">
          <mxGeometry x="77.5" y="460" width="100" height="30" as="geometry" />
        </mxCell>
        <mxCell id="v-zH-XTOCrItHWOVsEd--117" value="Products Filter" style="rounded=1;whiteSpace=wrap;html=1;" parent="1" vertex="1">
          <mxGeometry x="-382.5" y="280" width="100" height="30" as="geometry" />
        </mxCell>
        <mxCell id="v-zH-XTOCrItHWOVsEd--118" value="Payment" style="rounded=1;whiteSpace=wrap;html=1;" parent="1" vertex="1">
          <mxGeometry x="77.5" y="-60" width="100" height="30" as="geometry" />
        </mxCell>
        <mxCell id="v-zH-XTOCrItHWOVsEd--119" value="Get Payment Token" style="rounded=1;whiteSpace=wrap;html=1;" parent="1" vertex="1">
          <mxGeometry x="-52.5" y="-60" width="100" height="30" as="geometry" />
        </mxCell>
        <mxCell id="v-zH-XTOCrItHWOVsEd--120" value="Get Products from Category" style="rounded=1;whiteSpace=wrap;html=1;" parent="1" vertex="1">
          <mxGeometry x="-172.5" y="-60" width="100" height="30" as="geometry" />
        </mxCell>
        <mxCell id="v-zH-XTOCrItHWOVsEd--121" value="DataBase" style="shape=datastore;whiteSpace=wrap;html=1;" parent="1" vertex="1">
          <mxGeometry x="385" y="-60" width="130" height="135" as="geometry" />
        </mxCell>
        <mxCell id="v-zH-XTOCrItHWOVsEd--122" value="&lt;font style=&quot;font-size: 18px;&quot;&gt;SoleSphere Server&lt;br&gt;(Monolithic Architecture)&lt;/font&gt;" style="text;html=1;align=center;verticalAlign=middle;whiteSpace=wrap;rounded=0;" parent="1" vertex="1">
          <mxGeometry x="112.5" y="920" width="230" height="30" as="geometry" />
        </mxCell>
        <mxCell id="4n63rZ3z4ATAJjUIlD8n-25" style="edgeStyle=orthogonalEdgeStyle;rounded=0;orthogonalLoop=1;jettySize=auto;html=1;exitX=1;exitY=0.75;exitDx=0;exitDy=0;entryX=0;entryY=0.5;entryDx=0;entryDy=0;" edge="1" parent="1" source="4n63rZ3z4ATAJjUIlD8n-1" target="4n63rZ3z4ATAJjUIlD8n-2">
          <mxGeometry relative="1" as="geometry" />
        </mxCell>
        <mxCell id="4n63rZ3z4ATAJjUIlD8n-36" value="http connection" style="edgeLabel;html=1;align=center;verticalAlign=middle;resizable=0;points=[];" vertex="1" connectable="0" parent="4n63rZ3z4ATAJjUIlD8n-25">
          <mxGeometry x="-0.1374" y="1" relative="1" as="geometry">
            <mxPoint as="offset" />
          </mxGeometry>
        </mxCell>
        <mxCell id="4n63rZ3z4ATAJjUIlD8n-1" value="" style="shape=actor;whiteSpace=wrap;html=1;" vertex="1" parent="1">
          <mxGeometry x="-620" y="1512.5" width="40" height="60" as="geometry" />
        </mxCell>
        <mxCell id="4n63rZ3z4ATAJjUIlD8n-26" value="/auth" style="edgeStyle=orthogonalEdgeStyle;rounded=0;orthogonalLoop=1;jettySize=auto;html=1;exitX=0.5;exitY=0;exitDx=0;exitDy=0;entryX=0;entryY=0.5;entryDx=0;entryDy=0;" edge="1" parent="1" source="4n63rZ3z4ATAJjUIlD8n-2" target="4n63rZ3z4ATAJjUIlD8n-4">
          <mxGeometry relative="1" as="geometry" />
        </mxCell>
        <mxCell id="4n63rZ3z4ATAJjUIlD8n-27" value="/category" style="edgeStyle=orthogonalEdgeStyle;rounded=0;orthogonalLoop=1;jettySize=auto;html=1;exitX=1;exitY=0.25;exitDx=0;exitDy=0;entryX=0;entryY=0.5;entryDx=0;entryDy=0;" edge="1" parent="1" source="4n63rZ3z4ATAJjUIlD8n-2" target="4n63rZ3z4ATAJjUIlD8n-8">
          <mxGeometry relative="1" as="geometry">
            <Array as="points">
              <mxPoint x="-230" y="1458" />
              <mxPoint x="-230" y="1400" />
            </Array>
          </mxGeometry>
        </mxCell>
        <mxCell id="4n63rZ3z4ATAJjUIlD8n-28" value="/brand" style="edgeStyle=orthogonalEdgeStyle;rounded=0;orthogonalLoop=1;jettySize=auto;html=1;exitX=1;exitY=0.5;exitDx=0;exitDy=0;entryX=0;entryY=0.5;entryDx=0;entryDy=0;" edge="1" parent="1" source="4n63rZ3z4ATAJjUIlD8n-2" target="4n63rZ3z4ATAJjUIlD8n-12">
          <mxGeometry relative="1" as="geometry" />
        </mxCell>
        <mxCell id="4n63rZ3z4ATAJjUIlD8n-29" value="/order" style="edgeStyle=orthogonalEdgeStyle;rounded=0;orthogonalLoop=1;jettySize=auto;html=1;exitX=1;exitY=0.75;exitDx=0;exitDy=0;entryX=0;entryY=0.5;entryDx=0;entryDy=0;" edge="1" parent="1" source="4n63rZ3z4ATAJjUIlD8n-2" target="4n63rZ3z4ATAJjUIlD8n-16">
          <mxGeometry relative="1" as="geometry">
            <Array as="points">
              <mxPoint x="-230" y="1653" />
              <mxPoint x="-230" y="1710" />
            </Array>
          </mxGeometry>
        </mxCell>
        <mxCell id="4n63rZ3z4ATAJjUIlD8n-30" value="/product" style="edgeStyle=orthogonalEdgeStyle;rounded=0;orthogonalLoop=1;jettySize=auto;html=1;exitX=0.5;exitY=1;exitDx=0;exitDy=0;entryX=0;entryY=0.5;entryDx=0;entryDy=0;" edge="1" parent="1" source="4n63rZ3z4ATAJjUIlD8n-2" target="4n63rZ3z4ATAJjUIlD8n-20">
          <mxGeometry relative="1" as="geometry" />
        </mxCell>
        <mxCell id="4n63rZ3z4ATAJjUIlD8n-2" value="Api Gateway" style="rounded=0;whiteSpace=wrap;html=1;" vertex="1" parent="1">
          <mxGeometry x="-360" y="1360" width="60" height="390" as="geometry" />
        </mxCell>
        <mxCell id="4n63rZ3z4ATAJjUIlD8n-31" value="Fire and Forget" style="edgeStyle=orthogonalEdgeStyle;rounded=0;orthogonalLoop=1;jettySize=auto;html=1;exitX=1;exitY=0.5;exitDx=0;exitDy=0;entryX=0.5;entryY=0;entryDx=0;entryDy=0;" edge="1" parent="1" source="4n63rZ3z4ATAJjUIlD8n-4" target="4n63rZ3z4ATAJjUIlD8n-24">
          <mxGeometry relative="1" as="geometry" />
        </mxCell>
        <mxCell id="4n63rZ3z4ATAJjUIlD8n-4" value="" style="rounded=0;whiteSpace=wrap;html=1;strokeColor=default;dashed=1;" vertex="1" parent="1">
          <mxGeometry x="-82" y="1140" width="212" height="200" as="geometry" />
        </mxCell>
        <mxCell id="4n63rZ3z4ATAJjUIlD8n-5" value="Authentication" style="rounded=0;whiteSpace=wrap;html=1;" vertex="1" parent="1">
          <mxGeometry x="-47.5" y="1160" width="120" height="60" as="geometry" />
        </mxCell>
        <mxCell id="4n63rZ3z4ATAJjUIlD8n-6" value="Database" style="strokeWidth=2;html=1;shape=mxgraph.flowchart.database;whiteSpace=wrap;" vertex="1" parent="1">
          <mxGeometry x="-25.5" y="1250" width="76" height="80" as="geometry" />
        </mxCell>
        <mxCell id="4n63rZ3z4ATAJjUIlD8n-7" style="edgeStyle=orthogonalEdgeStyle;rounded=0;orthogonalLoop=1;jettySize=auto;html=1;exitX=0.5;exitY=1;exitDx=0;exitDy=0;entryX=0.5;entryY=0;entryDx=0;entryDy=0;entryPerimeter=0;" edge="1" parent="1" source="4n63rZ3z4ATAJjUIlD8n-5" target="4n63rZ3z4ATAJjUIlD8n-6">
          <mxGeometry relative="1" as="geometry" />
        </mxCell>
        <mxCell id="4n63rZ3z4ATAJjUIlD8n-32" value="&#xa;&lt;span style=&quot;color: rgb(0, 0, 0); font-family: Helvetica; font-size: 11px; font-style: normal; font-variant-ligatures: normal; font-variant-caps: normal; font-weight: 400; letter-spacing: normal; orphans: 2; text-align: center; text-indent: 0px; text-transform: none; widows: 2; word-spacing: 0px; -webkit-text-stroke-width: 0px; white-space: nowrap; background-color: rgb(255, 255, 255); text-decoration-thickness: initial; text-decoration-style: initial; text-decoration-color: initial; display: inline !important; float: none;&quot;&gt;Fire and Forget&lt;/span&gt;&#xa;&#xa;" style="edgeStyle=orthogonalEdgeStyle;rounded=0;orthogonalLoop=1;jettySize=auto;html=1;exitX=1;exitY=0.5;exitDx=0;exitDy=0;entryX=0;entryY=0.25;entryDx=0;entryDy=0;" edge="1" parent="1" source="4n63rZ3z4ATAJjUIlD8n-8" target="4n63rZ3z4ATAJjUIlD8n-24">
          <mxGeometry x="0.1107" y="-11" relative="1" as="geometry">
            <mxPoint as="offset" />
          </mxGeometry>
        </mxCell>
        <mxCell id="4n63rZ3z4ATAJjUIlD8n-8" value="" style="rounded=0;whiteSpace=wrap;html=1;strokeColor=default;dashed=1;" vertex="1" parent="1">
          <mxGeometry x="170" y="1300" width="212" height="200" as="geometry" />
        </mxCell>
        <mxCell id="4n63rZ3z4ATAJjUIlD8n-9" value="Category" style="rounded=0;whiteSpace=wrap;html=1;" vertex="1" parent="1">
          <mxGeometry x="204.5" y="1320" width="120" height="60" as="geometry" />
        </mxCell>
        <mxCell id="4n63rZ3z4ATAJjUIlD8n-10" value="Database" style="strokeWidth=2;html=1;shape=mxgraph.flowchart.database;whiteSpace=wrap;" vertex="1" parent="1">
          <mxGeometry x="226.5" y="1410" width="76" height="80" as="geometry" />
        </mxCell>
        <mxCell id="4n63rZ3z4ATAJjUIlD8n-11" style="edgeStyle=orthogonalEdgeStyle;rounded=0;orthogonalLoop=1;jettySize=auto;html=1;exitX=0.5;exitY=1;exitDx=0;exitDy=0;entryX=0.5;entryY=0;entryDx=0;entryDy=0;entryPerimeter=0;" edge="1" parent="1" source="4n63rZ3z4ATAJjUIlD8n-9" target="4n63rZ3z4ATAJjUIlD8n-10">
          <mxGeometry relative="1" as="geometry" />
        </mxCell>
        <mxCell id="4n63rZ3z4ATAJjUIlD8n-33" value="&#xa;&lt;span style=&quot;color: rgb(0, 0, 0); font-family: Helvetica; font-size: 11px; font-style: normal; font-variant-ligatures: normal; font-variant-caps: normal; font-weight: 400; letter-spacing: normal; orphans: 2; text-align: center; text-indent: 0px; text-transform: none; widows: 2; word-spacing: 0px; -webkit-text-stroke-width: 0px; white-space: nowrap; background-color: rgb(255, 255, 255); text-decoration-thickness: initial; text-decoration-style: initial; text-decoration-color: initial; display: inline !important; float: none;&quot;&gt;Fire and Forget&lt;/span&gt;&#xa;&#xa;" style="edgeStyle=orthogonalEdgeStyle;rounded=0;orthogonalLoop=1;jettySize=auto;html=1;exitX=1;exitY=0.5;exitDx=0;exitDy=0;entryX=0;entryY=0.5;entryDx=0;entryDy=0;" edge="1" parent="1" source="4n63rZ3z4ATAJjUIlD8n-12" target="4n63rZ3z4ATAJjUIlD8n-24">
          <mxGeometry relative="1" as="geometry" />
        </mxCell>
        <mxCell id="4n63rZ3z4ATAJjUIlD8n-12" value="" style="rounded=0;whiteSpace=wrap;html=1;strokeColor=default;dashed=1;" vertex="1" parent="1">
          <mxGeometry x="-72.5" y="1455" width="212" height="200" as="geometry" />
        </mxCell>
        <mxCell id="4n63rZ3z4ATAJjUIlD8n-13" value="Brand" style="rounded=0;whiteSpace=wrap;html=1;" vertex="1" parent="1">
          <mxGeometry x="-38" y="1475" width="120" height="60" as="geometry" />
        </mxCell>
        <mxCell id="4n63rZ3z4ATAJjUIlD8n-14" value="Database" style="strokeWidth=2;html=1;shape=mxgraph.flowchart.database;whiteSpace=wrap;" vertex="1" parent="1">
          <mxGeometry x="-16" y="1565" width="76" height="80" as="geometry" />
        </mxCell>
        <mxCell id="4n63rZ3z4ATAJjUIlD8n-15" style="edgeStyle=orthogonalEdgeStyle;rounded=0;orthogonalLoop=1;jettySize=auto;html=1;exitX=0.5;exitY=1;exitDx=0;exitDy=0;entryX=0.5;entryY=0;entryDx=0;entryDy=0;entryPerimeter=0;" edge="1" parent="1" source="4n63rZ3z4ATAJjUIlD8n-13" target="4n63rZ3z4ATAJjUIlD8n-14">
          <mxGeometry relative="1" as="geometry" />
        </mxCell>
        <mxCell id="4n63rZ3z4ATAJjUIlD8n-34" value="&#xa;&lt;span style=&quot;color: rgb(0, 0, 0); font-family: Helvetica; font-size: 11px; font-style: normal; font-variant-ligatures: normal; font-variant-caps: normal; font-weight: 400; letter-spacing: normal; orphans: 2; text-align: center; text-indent: 0px; text-transform: none; widows: 2; word-spacing: 0px; -webkit-text-stroke-width: 0px; white-space: nowrap; background-color: rgb(255, 255, 255); text-decoration-thickness: initial; text-decoration-style: initial; text-decoration-color: initial; display: inline !important; float: none;&quot;&gt;Fire and Forget&lt;/span&gt;&#xa;&#xa;" style="edgeStyle=orthogonalEdgeStyle;rounded=0;orthogonalLoop=1;jettySize=auto;html=1;exitX=1;exitY=0.5;exitDx=0;exitDy=0;entryX=0;entryY=0.75;entryDx=0;entryDy=0;" edge="1" parent="1" source="4n63rZ3z4ATAJjUIlD8n-16" target="4n63rZ3z4ATAJjUIlD8n-24">
          <mxGeometry relative="1" as="geometry" />
        </mxCell>
        <mxCell id="4n63rZ3z4ATAJjUIlD8n-16" value="" style="rounded=0;whiteSpace=wrap;html=1;strokeColor=default;dashed=1;" vertex="1" parent="1">
          <mxGeometry x="173" y="1610" width="212" height="200" as="geometry" />
        </mxCell>
        <mxCell id="4n63rZ3z4ATAJjUIlD8n-17" value="Order" style="rounded=0;whiteSpace=wrap;html=1;" vertex="1" parent="1">
          <mxGeometry x="207.5" y="1630" width="120" height="60" as="geometry" />
        </mxCell>
        <mxCell id="4n63rZ3z4ATAJjUIlD8n-18" value="Database" style="strokeWidth=2;html=1;shape=mxgraph.flowchart.database;whiteSpace=wrap;" vertex="1" parent="1">
          <mxGeometry x="229.5" y="1720" width="76" height="80" as="geometry" />
        </mxCell>
        <mxCell id="4n63rZ3z4ATAJjUIlD8n-19" style="edgeStyle=orthogonalEdgeStyle;rounded=0;orthogonalLoop=1;jettySize=auto;html=1;exitX=0.5;exitY=1;exitDx=0;exitDy=0;entryX=0.5;entryY=0;entryDx=0;entryDy=0;entryPerimeter=0;" edge="1" parent="1" source="4n63rZ3z4ATAJjUIlD8n-17" target="4n63rZ3z4ATAJjUIlD8n-18">
          <mxGeometry relative="1" as="geometry" />
        </mxCell>
        <mxCell id="4n63rZ3z4ATAJjUIlD8n-35" value="&#xa;&lt;span style=&quot;color: rgb(0, 0, 0); font-family: Helvetica; font-size: 11px; font-style: normal; font-variant-ligatures: normal; font-variant-caps: normal; font-weight: 400; letter-spacing: normal; orphans: 2; text-align: center; text-indent: 0px; text-transform: none; widows: 2; word-spacing: 0px; -webkit-text-stroke-width: 0px; white-space: nowrap; background-color: rgb(255, 255, 255); text-decoration-thickness: initial; text-decoration-style: initial; text-decoration-color: initial; display: inline !important; float: none;&quot;&gt;Fire and Forget&lt;/span&gt;&#xa;&#xa;" style="edgeStyle=orthogonalEdgeStyle;rounded=0;orthogonalLoop=1;jettySize=auto;html=1;exitX=1;exitY=0.5;exitDx=0;exitDy=0;entryX=0.5;entryY=1;entryDx=0;entryDy=0;" edge="1" parent="1" source="4n63rZ3z4ATAJjUIlD8n-20" target="4n63rZ3z4ATAJjUIlD8n-24">
          <mxGeometry relative="1" as="geometry" />
        </mxCell>
        <mxCell id="4n63rZ3z4ATAJjUIlD8n-20" value="" style="rounded=0;whiteSpace=wrap;html=1;strokeColor=default;dashed=1;" vertex="1" parent="1">
          <mxGeometry x="-72.5" y="1760" width="212" height="200" as="geometry" />
        </mxCell>
        <mxCell id="4n63rZ3z4ATAJjUIlD8n-21" value="Product" style="rounded=0;whiteSpace=wrap;html=1;" vertex="1" parent="1">
          <mxGeometry x="-38" y="1780" width="120" height="60" as="geometry" />
        </mxCell>
        <mxCell id="4n63rZ3z4ATAJjUIlD8n-22" value="Database" style="strokeWidth=2;html=1;shape=mxgraph.flowchart.database;whiteSpace=wrap;" vertex="1" parent="1">
          <mxGeometry x="-16" y="1870" width="76" height="80" as="geometry" />
        </mxCell>
        <mxCell id="4n63rZ3z4ATAJjUIlD8n-23" style="edgeStyle=orthogonalEdgeStyle;rounded=0;orthogonalLoop=1;jettySize=auto;html=1;exitX=0.5;exitY=1;exitDx=0;exitDy=0;entryX=0.5;entryY=0;entryDx=0;entryDy=0;entryPerimeter=0;" edge="1" parent="1" source="4n63rZ3z4ATAJjUIlD8n-21" target="4n63rZ3z4ATAJjUIlD8n-22">
          <mxGeometry relative="1" as="geometry" />
        </mxCell>
        <mxCell id="4n63rZ3z4ATAJjUIlD8n-24" value="Http Calls" style="rounded=0;whiteSpace=wrap;html=1;" vertex="1" parent="1">
          <mxGeometry x="540" y="1370" width="40" height="345" as="geometry" />
        </mxCell>
      </root>
    </mxGraphModel>
  </diagram>
</mxfile>
